<?xml version="1.0" encoding="utf-8"?>
<!-- Generator: Adobe Illustrator 23.0.0, SVG Export Plug-In . SVG Version: 6.00 Build 0)  -->
<svg version="1.1" id="Layer_1" xmlns="http://www.w3.org/2000/svg" xmlns:xlink="http://www.w3.org/1999/xlink" x="0px" y="0px"
	 viewBox="0 0 200 200" style="enable-background:new 0 0 200 200;" xml:space="preserve">
<style type="text/css">
	.st0{fill:#231F20;stroke:#231F20;stroke-miterlimit:10;}
	.st1{fill:#FFFFFF;}
</style>
<path class="st0" d="M194,204.2H6.8c-6.6,0-12-5.4-12-12V5c0-6.6,5.4-12,12-12H194c6.6,0,12,5.4,12,12v187.2
	C206,198.8,200.6,204.2,194,204.2z"/>
<g>
	<path class="st1" d="M41.1,125.4H62v12.3H25.1V72.1h16V125.4z"/>
	<path class="st1" d="M88.8,72.1v65.6h-16V72.1H88.8z"/>
	<path class="st1" d="M177.9,72.1v65.6h-16V98.3l-14.7,39.3h-12.9l-14.8-39.4v39.4h-16V72.1h18.9l18.4,45.4l18.2-45.4H177.9z"/>
</g>
</svg>
